<?xml version="1.0" encoding="utf-8"?>
<!-- Generator: Adobe Illustrator 16.0.0, SVG Export Plug-In . SVG Version: 6.00 Build 0)  -->
<!DOCTYPE svg PUBLIC "-//W3C//DTD SVG 1.1//EN" "http://www.w3.org/Graphics/SVG/1.1/DTD/svg11.dtd">
<svg version="1.1" id="Layer_1" xmlns="http://www.w3.org/2000/svg" xmlns:xlink="http://www.w3.org/1999/xlink" x="0px" y="0px"
	 width="25.166px" height="24.333px" viewBox="0 0 25.166 24.333" enable-background="new 0 0 25.166 24.333" xml:space="preserve">
<g>
	<g>
		<path fill="#4C4E4F" d="M14.229,10.641l2.381-2.383c1.738-1.735,1.738-4.562,0-6.3c-1.736-1.738-4.563-1.738-6.3,0L6.874,5.396
			c-1.737,1.738-1.737,4.565,0,6.302c0.256,0.256,0.537,0.473,0.834,0.655l1.84-1.842c-0.351-0.084-0.683-0.26-0.956-0.532
			c-0.79-0.791-0.79-2.075,0-2.866l3.437-3.437c0.79-0.789,2.075-0.789,2.864,0c0.791,0.791,0.791,2.075,0,2.865l-1.01,1.01
			C14.3,8.531,14.415,9.608,14.229,10.641z"/>
	</g>
	<g>
		<path fill="#4C4E4F" d="M4.686,7.583L2.304,9.964c-1.738,1.738-1.738,4.565,0,6.303c1.737,1.737,4.564,1.737,6.301,0l3.437-3.438
			c1.736-1.736,1.736-4.563,0-6.301c-0.256-0.256-0.537-0.475-0.834-0.655l-1.84,1.841c0.351,0.084,0.683,0.26,0.956,0.533
			c0.79,0.789,0.79,2.074,0,2.864l-3.438,3.437c-0.79,0.79-2.075,0.79-2.865,0c-0.79-0.789-0.79-2.074,0-2.863l1.01-1.011
			C4.615,9.694,4.501,8.617,4.686,7.583z"/>
	</g>
</g>
</svg>
